<?xml version="1.0" encoding="UTF-8"?>
<svg width="60px" height="60px" viewBox="0 0 60 60" version="1.1" xmlns="http://www.w3.org/2000/svg" xmlns:xlink="http://www.w3.org/1999/xlink">
    <title>ant-design:star-filled</title>
    <g id="Page-1" stroke="none" stroke-width="1" fill="none" fill-rule="evenodd">
        <g id="Desktop" transform="translate(-600.000000, -320.000000)">
            <g id="ant-design:star-filled" transform="translate(600.000000, 320.000000)">
                <rect id="ViewBox" x="0" y="0" width="60" height="60"></rect>
                <path d="M53.3839468,20.550036 L38.3949191,18.4057398 L31.6944282,5.03439742 C31.5114192,4.66829808 31.2103399,4.37193195 30.8384184,4.19178783 C29.9056628,3.73852199 28.7721877,4.11624352 28.3058099,5.03439742 L21.6053191,18.4057398 L6.61629142,20.550036 C6.20304529,20.608147 5.82522025,20.7999133 5.53594796,21.0904683 C4.80774325,21.8272176 4.82359636,23.0053909 5.57136906,23.7228969 L16.4161283,34.130578 L13.8540023,48.8268514 C13.731429,49.5242845 14.0223614,50.2296466 14.6041531,50.6455832 C15.1859449,51.0615198 15.9573737,51.1156646 16.5932338,50.7851923 L30.0001191,43.8467382 L43.4070044,50.7851923 C43.7730224,50.9769586 44.1980755,51.0408807 44.6054182,50.9711475 C45.63263,50.7968145 46.3233414,49.8379829 46.1462359,48.8268514 L43.5841099,34.130578 L54.4288691,23.7228969 C54.7240449,23.4381529 54.918861,23.0662425 54.9778961,22.6594655 C55.1372911,21.6425229 54.4170621,20.7011246 53.3839468,20.550036 Z" id="Path" fill="#000000" fill-rule="nonzero"></path>
            </g>
        </g>
    </g>
</svg>